<svg id="Layer_1" enable-background="new 0 0 512 512" height="512" viewBox="0 0 512 512" width="512" xmlns="http://www.w3.org/2000/svg"><g><g><path d="m436.041 512h-360.082c-8.284 0-15-6.716-15-15v-482c0-8.284 6.716-15 15-15h270.998l104.084 104.36v392.64c0 8.284-6.716 15-15 15z" fill="#fff4f4"/></g><path d="m346.958 0h-90.958v512h180.041c8.284 0 15-6.716 15-15v-392.64z" fill="#f6efea"/><path d="m451.041 104.36h-104.084v-104.083h89.084c8.284 0 15 6.716 15 15z" fill="#00607f"/><g><path d="m436 120h-90c-8.284 0-15-6.716-15-15v-90c0-6.067 3.654-11.537 9.26-13.858 5.604-2.321 12.058-1.038 16.347 3.251l90 90c4.29 4.29 5.573 10.742 3.252 16.347-2.323 5.605-7.792 9.26-13.859 9.26z" fill="#eee1dc"/></g><path d="m240 214h-104c-8.284 0-15-6.716-15-15v-12c0-36.944 30.056-67 67-67s67 30.056 67 67v12c0 8.284-6.716 15-15 15z" fill="#bee75e"/><g fill="#4793ff"><path d="m375.997 274h-239.997c-8.284 0-15-6.716-15-15s6.716-15 15-15h239.997c8.284 0 15 6.716 15 15s-6.716 15-15 15z"/><path d="m375.997 334h-239.997c-8.284 0-15-6.716-15-15s6.716-15 15-15h239.997c8.284 0 15 6.716 15 15s-6.716 15-15 15z"/><path d="m375.997 394h-239.997c-8.284 0-15-6.716-15-15s6.716-15 15-15h239.997c8.284 0 15 6.716 15 15s-6.716 15-15 15z"/><path d="m240.988 454h-104.988c-8.284 0-15-6.716-15-15s6.716-15 15-15h104.988c8.284 0 15 6.716 15 15s-6.716 15-15 15z"/></g><path d="m188 150c-24.813 0-45-20.187-45-45s20.187-45 45-45 45 20.187 45 45-20.187 45-45 45z" fill="#ffe4c1"/><path d="m375.997 244h-119.997v30h119.997c8.284 0 15-6.716 15-15s-6.716-15-15-15z" fill="#525cdd"/><path d="m375.997 304h-119.997v30h119.997c8.284 0 15-6.716 15-15s-6.716-15-15-15z" fill="#525cdd"/><path d="m375.997 364h-119.997v30h119.997c8.284 0 15-6.716 15-15s-6.716-15-15-15z" fill="#525cdd"/></g></svg>