<svg id="Layer_1" enable-background="new 0 0 512.003 512.003" height="512" viewBox="0 0 512.003 512.003" width="512" xmlns="http://www.w3.org/2000/svg"><g><g clip-rule="evenodd" fill-rule="evenodd"><path d="m207.153 251.475-139.415-241.475h-57.737l155.244 268.891c2.66-2.277 5.84-3.889 9.257-4.686l13.831-4.591 9.374-11.448c2.583-3.157 5.868-5.401 9.446-6.691z" fill="#ff5a58"/><path d="m67.738 10 139.415 241.475c3.154-1.137 6.536-1.533 9.863-1.159l15.887 1.149 12.884-6.906c4.4-2.347 9.245-3.025 13.811-2.254l-134.124-232.305z" fill="#fff"/><path d="m125.474 10 134.122 232.305c2.336.394 4.598 1.168 6.69 2.29l14.355 7.201 14.672-1.462c7.367-.724 14.236 2.32 18.693 7.563l10.734 12.407 10.602 3.203-21.606-37.423-28.868-50.002-28.866-49.997-72.796-126.085z" fill="#60a4ff"/><path d="m328.797 10-72.796 126.086 28.866 49.997 101.661-176.083z" fill="#ff5a58"/><path d="m386.528 10-101.661 176.083 28.868 50.001 130.53-226.084z" fill="#fff"/><path d="m444.265 10-130.53 226.084 21.606 37.423 3.531 1.067c2.997.905 5.655 2.398 7.886 4.314l155.244-268.888z" fill="#60a4ff"/><path d="m335.342 273.507-10.602-3.203-10.734-12.407c-4.457-5.242-11.326-8.287-18.693-7.563l-14.672 1.462-14.355-7.201c-2.092-1.123-4.354-1.896-6.69-2.29-4.565-.77-9.41-.093-13.81 2.254l-12.884 6.906-15.887-1.149c-3.327-.374-6.708.021-9.863 1.159-3.578 1.29-6.863 3.534-9.446 6.691l-9.374 11.448-13.831 4.591c-3.417.797-6.597 2.409-9.257 4.686-3.055 2.615-5.422 6.105-6.671 10.239l-4.27 14.133-12.407 10.734c-5.242 4.457-8.287 11.326-7.563 18.693l1.462 14.672-7.201 14.355c-3.317 6.179-3.584 13.848-.036 20.5l6.906 12.884-1.149 15.887c-.798 7.1 1.909 14.448 7.85 19.309l11.448 9.374 4.591 13.831c1.711 7.341 7.191 13.591 14.925 15.928l14.133 4.27 10.734 12.407c4.457 5.242 11.326 8.287 18.693 7.563l14.671-1.462 14.355 7.201c6.179 3.317 13.848 3.585 20.5.037l12.884-6.906 15.887 1.149c7.1.798 14.448-1.909 19.309-7.85l9.374-11.448 13.831-4.591c7.341-1.711 13.591-7.191 15.928-14.925l4.27-14.133 12.407-10.734c5.242-4.457 8.287-11.326 7.563-18.693l-1.462-14.671 7.201-14.355c3.317-6.179 3.585-13.848.037-20.5l-6.906-12.884 1.149-15.887c.798-7.1-1.909-14.448-7.85-19.309l-11.448-9.374-4.591-13.831c-1.048-4.497-3.51-8.585-7.039-11.614-2.232-1.916-4.89-3.409-7.887-4.314zm-79.341 18.495c44.183 0 80 35.817 80 80s-35.817 80-80 80-80-35.817-80-80 35.818-80 80-80z" fill="#ffc144"/><ellipse cx="256.001" cy="372.002" fill="#fff2a0" rx="80" ry="80" transform="matrix(.707 -.707 .707 .707 -188.064 289.977)"/></g><g><path d="m256.001 282.002c-49.626 0-90 40.374-90 90s40.374 90 90 90c49.627 0 90.001-40.374 90.001-90s-40.374-90-90.001-90zm0 160c-38.598 0-70-31.402-70-70s31.402-70 70-70c38.599 0 70.001 31.402 70.001 70s-31.402 70-70.001 70z"/><path d="m510.662 5c-1.786-3.094-5.088-5-8.66-5h-173.205c-3.572 0-6.874 1.906-8.66 5l-64.135 111.086-64.136-111.086c-1.786-3.094-5.088-5-8.66-5h-173.205c-3.572 0-6.874 1.906-8.66 5-1.786 3.094-1.786 6.906 0 10l151.7 262.753c-1.736 2.584-3.117 5.43-4.039 8.485l-3.433 11.359-10.15 8.782c-7.929 6.742-12.055 16.943-11.036 27.303l1.175 11.788-5.846 11.653c-4.958 9.345-4.952 20.474.034 29.819l5.535 10.329-.927 12.815c-1.13 10.702 3.15 21.136 11.476 27.947l9.205 7.538 3.548 10.688c2.705 10.825 10.962 19.514 21.654 22.743l11.359 3.432 8.781 10.151c6.742 7.928 16.948 12.053 27.303 11.035l11.788-1.174 11.651 5.845c4.663 2.475 9.771 3.713 14.88 3.713 5.128 0 10.259-1.248 14.941-3.745l10.329-5.537 12.814.927c10.699 1.126 21.135-3.149 27.948-11.475l7.538-9.205 10.688-3.548c10.825-2.705 19.514-10.962 22.742-21.654l3.433-11.359 10.149-8.781c7.93-6.742 12.056-16.944 11.036-27.303l-1.175-11.787 5.845-11.652c4.96-9.344 4.954-20.473-.031-29.82l-5.536-10.33.927-12.817c1.13-10.701-3.151-21.135-11.476-27.946l-9.205-7.538-3.548-10.688c-.903-3.612-2.435-6.978-4.459-9.991l151.703-262.755c1.786-3.094 1.786-6.906 0-10zm-214.248 181.082 95.888-166.082h34.643l-113.21 196.084zm38.156-166.082h34.638l-84.341 146.083-17.319-29.997zm-29.432 221.193c-3.488-.874-7.139-1.171-10.815-.808l-11.788 1.174-11.652-5.845c-1.527-.81-3.104-1.474-4.711-2.019l-123.377-213.695h34.637zm-243.174-221.193 44.317 76.76c1.853 3.208 5.213 5.002 8.67 5.002 1.696 0 3.416-.433 4.99-1.342 4.783-2.761 6.422-8.877 3.66-13.66l-38.543-66.76h34.644l123.874 214.558c-.849.362-1.69.749-2.514 1.188l-10.329 5.537-12.814-.927c-1.912-.203-3.814-.225-5.69-.09l-43.621-75.553c-2.762-4.783-8.878-6.421-13.66-3.66-4.783 2.761-6.422 8.877-3.66 13.66l42.345 73.344c-1.307 1.148-2.538 2.401-3.663 3.775l-7.537 9.205-10.688 3.547c-.93.232-1.837.52-2.733.832l-141.691-245.416zm301.541 301.447c3.107 2.543 4.695 6.45 4.245 10.452-.015.131-.027.263-.036.395l-1.149 15.887c-.137 1.888.266 3.777 1.159 5.445l6.896 12.868c1.847 3.461 1.838 7.596-.023 11.063-.044.082-.086.164-.128.247l-7.201 14.355c-.849 1.692-1.2 3.591-1.013 5.476l1.461 14.66c.377 3.824-1.151 7.598-4.153 10.15l-12.406 10.733c-1.432 1.238-2.482 2.858-3.029 4.67l-4.271 14.135c-1.216 4.026-4.521 7.121-8.625 8.078-.297.069-.591.152-.88.248l-13.831 4.591c-1.797.596-3.388 1.69-4.587 3.155l-9.376 11.45c-2.544 3.108-6.456 4.695-10.451 4.245-.132-.015-.265-.027-.396-.037l-15.887-1.149c-1.892-.134-3.777.266-5.446 1.16l-12.864 6.896c-3.463 1.847-7.6 1.837-11.066-.024-.081-.043-.163-.086-.246-.127l-14.354-7.201c-1.396-.7-2.931-1.062-4.483-1.062-.33 0-.661.016-.991.049l-14.659 1.46c-3.833.379-7.6-1.152-10.152-4.153l-10.733-12.407c-1.238-1.432-2.858-2.482-4.67-3.03l-14.134-4.27c-4.026-1.216-7.121-4.521-8.078-8.626-.069-.297-.152-.59-.248-.879l-4.591-13.832c-.597-1.797-1.69-3.388-3.155-4.587l-11.451-9.377c-3.107-2.543-4.695-6.45-4.245-10.452.015-.131.027-.263.036-.395l1.149-15.887c.137-1.889-.266-3.777-1.16-5.446l-6.896-12.867c-1.847-3.46-1.838-7.597.023-11.064.043-.081.086-.163.127-.245l7.201-14.355c.849-1.692 1.2-3.591 1.013-5.476l-1.461-14.66c-.376-3.825 1.152-7.599 4.153-10.151l12.407-10.733c1.432-1.239 2.482-2.858 3.029-4.67l4.271-14.135c1.216-4.026 4.521-7.121 8.625-8.078.297-.069.59-.152.88-.248l13.831-4.59c1.797-.597 3.387-1.691 4.587-3.156l9.377-11.451c2.543-3.108 6.449-4.701 10.45-4.245.132.015.265.027.396.037l15.887 1.149c1.891.132 3.777-.266 5.446-1.16l12.865-6.896c3.459-1.846 7.595-1.837 11.065.024.081.043.163.086.245.127l14.355 7.201c1.692.849 3.591 1.201 5.475 1.012l14.659-1.46c3.834-.375 7.6 1.152 10.151 4.153l10.734 12.407c1.238 1.432 2.858 2.482 4.671 3.03l14.133 4.27c4.026 1.216 7.121 4.521 8.078 8.626.069.296.152.59.248.879l4.591 13.831c.597 1.796 1.69 3.387 3.155 4.586zm-20.515-56.031c-.319-.111-.637-.224-.961-.325l-16.747-29.007 124.757-216.084h34.643z"/><path d="m267.088 402.001h-1.087v-69.999c0-3.573-1.906-6.874-5-8.66-3.094-1.787-6.906-1.786-10 0l-11.086 6.401c-4.783 2.762-6.422 8.877-3.66 13.661 2.044 3.54 5.922 5.359 9.746 4.943v53.654h-1.086c-5.522 0-10 4.477-10 10s4.478 10 10 10h22.173c5.522 0 10-4.477 10-10s-4.478-10-10-10z"/><path d="m137.445 120.738h-.007c-5.522 0-9.996 4.477-9.996 10s4.48 10 10.003 10 10-4.477 10-10-4.477-10-10-10z"/></g></g></svg>