<svg id="Capa_1" enable-background="new 0 0 512 512" height="512" viewBox="0 0 512 512" width="512" xmlns="http://www.w3.org/2000/svg"><path d="m437.02 74.98c-48.353-48.351-112.64-74.98-181.02-74.98s-132.667 26.629-181.02 74.98c-48.351 48.353-74.98 112.64-74.98 181.02s26.629 132.667 74.98 181.02c48.353 48.351 112.64 74.98 181.02 74.98s132.667-26.629 181.02-74.98c48.351-48.353 74.98-112.64 74.98-181.02s-26.629-132.667-74.98-181.02zm-196.02 376.451v30.067c-29.826-1.942-58.528-9.661-84.811-22.62l15.097-26.149c21.385 10.292 44.911 16.816 69.714 18.702zm30 0c24.803-1.886 48.329-8.41 69.714-18.702l15.097 26.148c-26.283 12.959-54.985 20.679-84.811 22.62zm-15-29.431c-91.533 0-166-74.467-166-166s74.467-166 166-166 166 74.467 166 166-74.467 166-166 166zm-195.431-181h-30.067c1.942-29.826 9.661-58.529 22.621-84.811l26.149 15.097c-10.293 21.385-16.817 44.911-18.703 69.714zm0 30c1.886 24.803 8.41 48.329 18.702 69.714l-26.149 15.097c-12.959-26.282-20.679-54.985-22.62-84.811zm210.431-210.431v-30.067c29.826 1.942 58.529 9.661 84.811 22.62l-15.097 26.148c-21.385-10.291-44.911-16.815-69.714-18.701zm-30 0c-24.803 1.886-48.329 8.41-69.714 18.702l-15.097-26.149c26.283-12.959 54.985-20.679 84.811-22.62zm210.431 210.431h30.067c-1.942 29.826-9.661 58.529-22.62 84.811l-26.148-15.097c10.291-21.385 16.815-44.911 18.701-69.714zm0-30c-1.886-24.803-8.41-48.329-18.702-69.714l26.148-15.097c12.959 26.283 20.679 54.985 22.62 84.811zm-7.587-110.772-26.165 15.107c-13.717-19.978-31.035-37.296-51.013-51.013l15.107-26.165c12.096 8.135 23.495 17.5 34.033 28.039 10.538 10.537 19.903 21.936 28.038 34.032zm-347.65-34.034c10.539-10.539 21.938-19.903 34.034-28.039l15.107 26.166c-19.978 13.717-37.296 31.035-51.013 51.013l-26.166-15.107c8.135-12.095 17.499-23.494 28.038-34.033zm-28.038 285.578 26.166-15.107c13.717 19.978 31.035 37.296 51.013 51.013l-15.107 26.166c-12.096-8.135-23.495-17.5-34.034-28.039-10.539-10.538-19.903-21.937-28.038-34.033zm347.65 34.034c-10.538 10.539-21.937 19.903-34.033 28.039l-15.107-26.165c19.978-13.717 37.296-31.035 51.013-51.013l26.165 15.107c-8.135 12.094-17.5 23.493-28.038 34.032z"/><path d="m250.096 189h11.808c14.337 0 26 11.663 26 26h30c0-27.781-20.338-50.891-46.904-55.25v-30.786h-30v30.786c-26.566 4.359-46.904 27.469-46.904 55.25 0 30.879 25.122 56 56 56h11.808c14.337 0 26 11.663 26 26s-11.663 26-26 26h-11.808c-14.336 0-26-11.663-26-26h-30c0 27.781 20.338 50.89 46.904 55.25v30.786h30v-30.786c26.567-4.359 46.904-27.469 46.904-55.25 0-30.879-25.121-56-56-56h-11.808c-14.336 0-26-11.663-26-26s11.664-26 26-26z"/></svg>