<?xml version="1.0" encoding="utf-8"?>
<!-- Generator: Adobe Illustrator 16.0.0, SVG Export Plug-In . SVG Version: 6.00 Build 0)  -->
<!DOCTYPE svg PUBLIC "-//W3C//DTD SVG 1.1//EN" "http://www.w3.org/Graphics/SVG/1.1/DTD/svg11.dtd">
<svg version="1.1" id="Layer_1" xmlns="http://www.w3.org/2000/svg" xmlns:xlink="http://www.w3.org/1999/xlink" x="0px" y="0px"
	 width="1440px" height="1953px" viewBox="0 0 1440 1953" enable-background="new 0 0 1440 1953" xml:space="preserve">
<title>BG</title>
<desc>Created with Sketch.</desc>
<g id="Website-_x2F_-Desktop-_x28_Reworked_x29_" opacity="0.5">
	<g id="_x34_.-Pricing" transform="translate(0.000000, -922.000000)">
		<g id="BG" transform="translate(-832.000000, 928.000000)">
			
				<linearGradient id="Rectangle-20_1_" gradientUnits="userSpaceOnUse" x1="1247.0029" y1="1366.6982" x2="1246.3223" y2="1367.9919" gradientTransform="matrix(1934.1056 781.4293 172.319 -426.5046 -2645835 -389684.875)">
				<stop  offset="0" style="stop-color:#3B2EB9"/>
				<stop  offset="1" style="stop-color:#CA94FF"/>
			</linearGradient>
			<path id="Rectangle-20" opacity="0.08" fill="url(#Rectangle-20_1_)" enable-background="new    " d="M172.818,754.024
				l1730.125,699.017c112.655,45.516,167.083,173.738,121.567,286.394l-7.492,18.544
				c-45.516,112.655-173.738,167.082-286.394,121.566L0.5,1180.529L172.818,754.024z"/>
			
				<linearGradient id="Rectangle-5-Copy-6_1_" gradientUnits="userSpaceOnUse" x1="1240.1001" y1="1368.1543" x2="1240.1001" y2="1367.1577" gradientTransform="matrix(72.1249 72.1249 72.1249 -72.1249 -185969.7813 10295.7969)">
				<stop  offset="0" style="stop-color:#CFFFFE"/>
				<stop  offset="1" style="stop-color:#5EAAE1"/>
			</linearGradient>
			
				<path id="Rectangle-5-Copy-6" opacity="0.3" fill="none" stroke="url(#Rectangle-5-Copy-6_1_)" stroke-width="38" enable-background="new    " d="
				M2128.268,1037.893l43.84,43.841c7.811,7.81,7.811,20.474,0,28.284l-43.841,43.84c-7.81,7.811-20.474,7.811-28.284,0
				l-43.84-43.84c-7.811-7.811-7.811-20.475,0-28.284l43.84-43.841C2107.793,1030.082,2120.457,1030.082,2128.268,1037.893z"/>
			
				<linearGradient id="Rectangle-5-Copy-7_1_" gradientUnits="userSpaceOnUse" x1="1233.9224" y1="1371.3271" x2="1232.9813" y2="1366.0592" gradientTransform="matrix(36.7696 36.7696 36.7696 -36.7696 -94717.9063 6662.7305)">
				<stop  offset="0" style="stop-color:#FFABAB"/>
				<stop  offset="1" style="stop-color:#F8FE88"/>
			</linearGradient>
			
				<path id="Rectangle-5-Copy-7" opacity="0.2" fill="none" stroke="url(#Rectangle-5-Copy-7_1_)" stroke-width="20" enable-background="new    " d="
				M975.447,1661.606l15.556,15.557c5.858,5.857,5.858,15.355,0,21.213l-15.557,15.557c-5.858,5.857-15.355,5.857-21.213,0
				l-15.556-15.557c-5.858-5.857-5.858-15.355,0-21.213l15.557-15.557C960.092,1655.749,969.589,1655.749,975.447,1661.606z"/>
			
				<linearGradient id="Rectangle-5_1_" gradientUnits="userSpaceOnUse" x1="1242.834" y1="1366.5635" x2="1241.4519" y2="1368.6786" gradientTransform="matrix(107.4802 107.4802 107.4802 -107.4802 -279663.0938 14029.375)">
				<stop  offset="0" style="stop-color:#ABE5FF"/>
				<stop  offset="1" style="stop-color:#BC88FE"/>
			</linearGradient>
			
				<path id="Rectangle-5" opacity="0.3" fill="none" stroke="url(#Rectangle-5_1_)" stroke-width="40" enable-background="new    " d="
				M854.527,529.527l42.426,42.426c17.964,17.964,17.964,47.09,0,65.054l-42.426,42.427c-17.964,17.964-47.09,17.964-65.054,0
				l-42.426-42.427c-17.964-17.964-17.964-47.09,0-65.054l42.426-42.426C807.437,511.563,836.563,511.563,854.527,529.527z"/>
			
				<linearGradient id="Rectangle-5-Copy-2_1_" gradientUnits="userSpaceOnUse" x1="1240.3604" y1="1368.1113" x2="1240.3604" y2="1367.1147" gradientTransform="matrix(74.9533 74.9533 74.9533 -74.9533 -193213.9844 10030.875)">
				<stop  offset="0" style="stop-color:#FFABAB"/>
				<stop  offset="1" style="stop-color:#BC88FE"/>
			</linearGradient>
			
				<path id="Rectangle-5-Copy-2" opacity="0.1" fill="none" stroke="url(#Rectangle-5-Copy-2_1_)" stroke-width="38" enable-background="new    " d="
				M2284.723,440.769l29.415,29.416c12.575,12.575,12.575,32.963,0,45.538l-29.415,29.415c-12.575,12.575-32.963,12.575-45.538,0
				l-29.415-29.415c-12.575-12.575-12.575-32.963-0.001-45.538l29.416-29.416C2251.76,428.194,2272.147,428.193,2284.723,440.769z"
				/>
			
				<linearGradient id="Rectangle-5-Copy-4_1_" gradientUnits="userSpaceOnUse" x1="1240.3604" y1="1368.1104" x2="1240.3604" y2="1367.1138" gradientTransform="matrix(74.9533 74.9533 74.9533 -74.9533 -194472.9844 9612.875)">
				<stop  offset="0" style="stop-color:#FFABAB"/>
				<stop  offset="1" style="stop-color:#BC88FE"/>
			</linearGradient>
			
				<path id="Rectangle-5-Copy-4" opacity="0.1" fill="none" stroke="url(#Rectangle-5-Copy-4_1_)" stroke-width="38" enable-background="new    " d="
				M1025.722,22.769l29.416,29.416c12.575,12.575,12.575,32.963,0,45.538l-29.416,29.416c-12.575,12.575-32.963,12.575-45.538,0
				l-29.416-29.416c-12.575-12.575-12.575-32.963,0-45.538l29.416-29.416C992.759,10.194,1013.147,10.194,1025.722,22.769z"/>
			
				<linearGradient id="Rectangle-5-Copy-5_2_" gradientUnits="userSpaceOnUse" x1="1240.3604" y1="1368.1113" x2="1240.3604" y2="1367.1147" gradientTransform="matrix(74.9533 74.9533 74.9533 -74.9533 -193455.9844 9760.9219)">
				<stop  offset="0" style="stop-color:#CFFFFE"/>
				<stop  offset="1" style="stop-color:#51CF71"/>
			</linearGradient>
			
				<path id="Rectangle-5-Copy-5" opacity="0.3" fill="none" stroke="url(#Rectangle-5-Copy-5_2_)" stroke-width="38" enable-background="new    " d="
				M2042.723,170.815l29.415,29.416c12.575,12.575,12.575,32.963,0,45.538l-29.415,29.416c-12.575,12.575-32.963,12.575-45.538,0
				l-29.416-29.416c-12.575-12.575-12.574-32.962,0-45.537l29.416-29.416C2009.76,158.241,2030.147,158.24,2042.723,170.815z"/>
			
				<linearGradient id="Rectangle-5-Copy-5_3_" gradientUnits="userSpaceOnUse" x1="1241.8228" y1="1367.8652" x2="1241.8228" y2="1366.8687" gradientTransform="matrix(96.1665 96.1665 96.1665 -96.1665 -250088.6875 13918.0625)">
				<stop  offset="0" style="stop-color:#CFFFFE"/>
				<stop  offset="1" style="stop-color:#51CF71"/>
			</linearGradient>
			
				<path id="Rectangle-5-Copy-5_1_" opacity="0.3" fill="none" stroke="url(#Rectangle-5-Copy-5_3_)" stroke-width="38" enable-background="new    " d="
				M850.722,1771.769l50.629,50.629c12.575,12.575,12.575,32.963,0,45.538l-50.629,50.629c-12.575,12.574-32.963,12.574-45.538,0
				l-50.629-50.629c-12.575-12.575-12.575-32.963,0-45.538l50.629-50.629C817.759,1759.193,838.147,1759.193,850.722,1771.769z"/>
			
				<linearGradient id="Rectangle-5-Copy-3_1_" gradientUnits="userSpaceOnUse" x1="1230.2393" y1="1369.8027" x2="1230.2393" y2="1368.8062" gradientTransform="matrix(29.6985 29.6985 29.6985 -29.6985 -76010.4844 4455.8281)">
				<stop  offset="0" style="stop-color:#FFABAB"/>
				<stop  offset="1" style="stop-color:#BC88FE"/>
			</linearGradient>
			
				<path id="Rectangle-5-Copy-3" opacity="0.3" fill="none" stroke="url(#Rectangle-5-Copy-3_1_)" stroke-width="12" enable-background="new    " d="
				M1199.071,303.23l15.556,15.556c3.906,3.905,3.906,10.237,0,14.142l-15.556,15.557c-3.905,3.905-10.237,3.905-14.143,0
				l-15.556-15.557c-3.905-3.905-3.905-10.237,0-14.142l15.556-15.557C1188.834,299.325,1195.166,299.325,1199.071,303.23z"/>
		</g>
	</g>
</g>
</svg>
