<?xml version="1.0" encoding="utf-8"?>
<!-- Generator: Adobe Illustrator 16.0.0, SVG Export Plug-In . SVG Version: 6.00 Build 0)  -->
<!DOCTYPE svg PUBLIC "-//W3C//DTD SVG 1.1//EN" "http://www.w3.org/Graphics/SVG/1.1/DTD/svg11.dtd">
<svg version="1.1" id="Layer_1" xmlns="http://www.w3.org/2000/svg" xmlns:xlink="http://www.w3.org/1999/xlink" x="0px" y="0px"
	 width="13px" height="13px" viewBox="0 0 13 13" enable-background="new 0 0 13 13" xml:space="preserve">
<g>
	<g>
		<path fill="#333333" d="M6.5,0C2.91,0,0,2.909,0,6.499c0,3.588,2.91,6.499,6.5,6.499c3.589,0,6.5-2.911,6.5-6.499
			C12.994,2.912,10.088,0.004,6.5,0z M6.5,12.067c-3.077,0-5.571-2.493-5.571-5.568c0-3.077,2.494-5.571,5.571-5.571
			c3.077,0,5.57,2.494,5.57,5.571C12.067,9.572,9.575,12.066,6.5,12.067z"/>
	</g>
</g>
<g>
	<g>
		<path fill="#333333" d="M6.5,2.321c-0.257,0-0.465,0.208-0.465,0.464v3.25H2.786c-0.256,0-0.464,0.207-0.464,0.464
			c0,0.256,0.208,0.462,0.464,0.462H6.5c0.256,0,0.465-0.207,0.465-0.462V2.785C6.965,2.529,6.755,2.321,6.5,2.321z"/>
	</g>
</g>
</svg>
